<mxfile host="app.diagrams.net" modified="2024-02-27T11:48:57.117Z" agent="Mozilla/5.0 (Windows NT 10.0; Win64; x64) AppleWebKit/537.36 (KHTML, like Gecko) Chrome/122.0.0.0 Safari/537.36" etag="ADvrUOE-u3VzAZOfEzyz" version="23.1.3" type="device">
  <diagram name="Page-1" id="l9skwRj4aN-c2F6VNhR4">
    <mxGraphModel dx="2284" dy="738" grid="1" gridSize="10" guides="1" tooltips="1" connect="1" arrows="1" fold="1" page="1" pageScale="1" pageWidth="850" pageHeight="1100" math="0" shadow="0">
      <root>
        <mxCell id="0" />
        <mxCell id="1" parent="0" />
        <mxCell id="P316yzqodgfWiT0RlaoM-1" value="&lt;font style=&quot;font-size: 21px;&quot;&gt;User&lt;/font&gt;" style="rounded=0;whiteSpace=wrap;html=1;" vertex="1" parent="1">
          <mxGeometry x="110" y="340" width="120" height="60" as="geometry" />
        </mxCell>
        <mxCell id="P316yzqodgfWiT0RlaoM-2" value="&lt;font style=&quot;font-size: 24px;&quot;&gt;Contact&lt;/font&gt;" style="rounded=0;whiteSpace=wrap;html=1;" vertex="1" parent="1">
          <mxGeometry x="820" y="330" width="120" height="60" as="geometry" />
        </mxCell>
        <mxCell id="P316yzqodgfWiT0RlaoM-4" value="&lt;u&gt;Id&lt;/u&gt;" style="ellipse;whiteSpace=wrap;html=1;" vertex="1" parent="1">
          <mxGeometry x="-40" y="120" width="110" height="50" as="geometry" />
        </mxCell>
        <mxCell id="P316yzqodgfWiT0RlaoM-5" value="role" style="ellipse;whiteSpace=wrap;html=1;" vertex="1" parent="1">
          <mxGeometry x="-90" y="210" width="110" height="50" as="geometry" />
        </mxCell>
        <mxCell id="P316yzqodgfWiT0RlaoM-7" value="Name" style="ellipse;whiteSpace=wrap;html=1;" vertex="1" parent="1">
          <mxGeometry x="90" y="90" width="110" height="50" as="geometry" />
        </mxCell>
        <mxCell id="P316yzqodgfWiT0RlaoM-8" value="Email" style="ellipse;whiteSpace=wrap;html=1;" vertex="1" parent="1">
          <mxGeometry x="240" y="120" width="110" height="50" as="geometry" />
        </mxCell>
        <mxCell id="P316yzqodgfWiT0RlaoM-9" value="Password" style="ellipse;whiteSpace=wrap;html=1;" vertex="1" parent="1">
          <mxGeometry x="280" y="200" width="110" height="50" as="geometry" />
        </mxCell>
        <mxCell id="P316yzqodgfWiT0RlaoM-10" value="Description" style="ellipse;whiteSpace=wrap;html=1;" vertex="1" parent="1">
          <mxGeometry x="315" y="280" width="110" height="50" as="geometry" />
        </mxCell>
        <mxCell id="P316yzqodgfWiT0RlaoM-11" value="enabled" style="ellipse;whiteSpace=wrap;html=1;" vertex="1" parent="1">
          <mxGeometry x="-80" y="290" width="110" height="50" as="geometry" />
        </mxCell>
        <mxCell id="P316yzqodgfWiT0RlaoM-12" value="" style="endArrow=none;html=1;rounded=0;entryX=0.5;entryY=1;entryDx=0;entryDy=0;exitX=0.325;exitY=-0.033;exitDx=0;exitDy=0;exitPerimeter=0;" edge="1" parent="1" source="P316yzqodgfWiT0RlaoM-1" target="P316yzqodgfWiT0RlaoM-7">
          <mxGeometry width="50" height="50" relative="1" as="geometry">
            <mxPoint x="340" y="310" as="sourcePoint" />
            <mxPoint x="390" y="260" as="targetPoint" />
          </mxGeometry>
        </mxCell>
        <mxCell id="P316yzqodgfWiT0RlaoM-13" value="" style="endArrow=none;html=1;rounded=0;exitX=0.175;exitY=0;exitDx=0;exitDy=0;exitPerimeter=0;" edge="1" parent="1" source="P316yzqodgfWiT0RlaoM-1" target="P316yzqodgfWiT0RlaoM-4">
          <mxGeometry width="50" height="50" relative="1" as="geometry">
            <mxPoint x="143" y="348" as="sourcePoint" />
            <mxPoint x="155" y="150" as="targetPoint" />
          </mxGeometry>
        </mxCell>
        <mxCell id="P316yzqodgfWiT0RlaoM-14" value="" style="endArrow=none;html=1;rounded=0;" edge="1" parent="1">
          <mxGeometry width="50" height="50" relative="1" as="geometry">
            <mxPoint x="110" y="350" as="sourcePoint" />
            <mxPoint x="20" y="229.5" as="targetPoint" />
          </mxGeometry>
        </mxCell>
        <mxCell id="P316yzqodgfWiT0RlaoM-15" value="" style="endArrow=none;html=1;rounded=0;exitX=0;exitY=0.75;exitDx=0;exitDy=0;" edge="1" parent="1" source="P316yzqodgfWiT0RlaoM-1">
          <mxGeometry width="50" height="50" relative="1" as="geometry">
            <mxPoint x="117" y="429.75" as="sourcePoint" />
            <mxPoint x="30" y="310.25" as="targetPoint" />
          </mxGeometry>
        </mxCell>
        <mxCell id="P316yzqodgfWiT0RlaoM-18" value="" style="endArrow=none;html=1;rounded=0;exitX=0.5;exitY=0;exitDx=0;exitDy=0;" edge="1" parent="1" source="P316yzqodgfWiT0RlaoM-1" target="P316yzqodgfWiT0RlaoM-8">
          <mxGeometry width="50" height="50" relative="1" as="geometry">
            <mxPoint x="159" y="348" as="sourcePoint" />
            <mxPoint x="155" y="150" as="targetPoint" />
          </mxGeometry>
        </mxCell>
        <mxCell id="P316yzqodgfWiT0RlaoM-19" value="" style="endArrow=none;html=1;rounded=0;exitX=0.75;exitY=0;exitDx=0;exitDy=0;entryX=0;entryY=0.5;entryDx=0;entryDy=0;" edge="1" parent="1" source="P316yzqodgfWiT0RlaoM-1" target="P316yzqodgfWiT0RlaoM-9">
          <mxGeometry width="50" height="50" relative="1" as="geometry">
            <mxPoint x="180" y="350" as="sourcePoint" />
            <mxPoint x="290" y="179" as="targetPoint" />
          </mxGeometry>
        </mxCell>
        <mxCell id="P316yzqodgfWiT0RlaoM-20" value="" style="endArrow=none;html=1;rounded=0;exitX=1;exitY=0;exitDx=0;exitDy=0;entryX=0;entryY=0.5;entryDx=0;entryDy=0;" edge="1" parent="1" source="P316yzqodgfWiT0RlaoM-1" target="P316yzqodgfWiT0RlaoM-10">
          <mxGeometry width="50" height="50" relative="1" as="geometry">
            <mxPoint x="210" y="350" as="sourcePoint" />
            <mxPoint x="290" y="235" as="targetPoint" />
          </mxGeometry>
        </mxCell>
        <mxCell id="P316yzqodgfWiT0RlaoM-27" value="&lt;u&gt;cid&lt;/u&gt;" style="ellipse;whiteSpace=wrap;html=1;" vertex="1" parent="1">
          <mxGeometry x="620" y="130" width="144" height="50" as="geometry" />
        </mxCell>
        <mxCell id="P316yzqodgfWiT0RlaoM-28" value="description" style="ellipse;whiteSpace=wrap;html=1;" vertex="1" parent="1">
          <mxGeometry x="570" y="230" width="144" height="50" as="geometry" />
        </mxCell>
        <mxCell id="P316yzqodgfWiT0RlaoM-29" value="Name" style="ellipse;whiteSpace=wrap;html=1;" vertex="1" parent="1">
          <mxGeometry x="820" y="130" width="144" height="50" as="geometry" />
        </mxCell>
        <mxCell id="P316yzqodgfWiT0RlaoM-30" value="NickName" style="ellipse;whiteSpace=wrap;html=1;" vertex="1" parent="1">
          <mxGeometry x="940" y="210" width="144" height="50" as="geometry" />
        </mxCell>
        <mxCell id="P316yzqodgfWiT0RlaoM-31" value="work" style="ellipse;whiteSpace=wrap;html=1;" vertex="1" parent="1">
          <mxGeometry x="975" y="290" width="144" height="50" as="geometry" />
        </mxCell>
        <mxCell id="P316yzqodgfWiT0RlaoM-32" value="Phone" style="ellipse;whiteSpace=wrap;html=1;" vertex="1" parent="1">
          <mxGeometry x="560" y="300" width="144" height="50" as="geometry" />
        </mxCell>
        <mxCell id="P316yzqodgfWiT0RlaoM-33" value="email" style="ellipse;whiteSpace=wrap;html=1;" vertex="1" parent="1">
          <mxGeometry x="970" y="390" width="114" height="50" as="geometry" />
        </mxCell>
        <mxCell id="P316yzqodgfWiT0RlaoM-34" value="image" style="ellipse;whiteSpace=wrap;html=1;" vertex="1" parent="1">
          <mxGeometry x="960" y="480" width="114" height="50" as="geometry" />
        </mxCell>
        <mxCell id="P316yzqodgfWiT0RlaoM-35" value="" style="endArrow=none;html=1;rounded=0;entryX=0.278;entryY=1.04;entryDx=0;entryDy=0;entryPerimeter=0;exitX=0.25;exitY=0;exitDx=0;exitDy=0;" edge="1" parent="1" source="P316yzqodgfWiT0RlaoM-2" target="P316yzqodgfWiT0RlaoM-29">
          <mxGeometry width="50" height="50" relative="1" as="geometry">
            <mxPoint x="340" y="310" as="sourcePoint" />
            <mxPoint x="390" y="260" as="targetPoint" />
          </mxGeometry>
        </mxCell>
        <mxCell id="P316yzqodgfWiT0RlaoM-36" value="" style="endArrow=none;html=1;rounded=0;entryX=0.09;entryY=0.8;entryDx=0;entryDy=0;entryPerimeter=0;exitX=0.408;exitY=-0.05;exitDx=0;exitDy=0;exitPerimeter=0;" edge="1" parent="1" source="P316yzqodgfWiT0RlaoM-2" target="P316yzqodgfWiT0RlaoM-30">
          <mxGeometry width="50" height="50" relative="1" as="geometry">
            <mxPoint x="860" y="340" as="sourcePoint" />
            <mxPoint x="870" y="192" as="targetPoint" />
          </mxGeometry>
        </mxCell>
        <mxCell id="P316yzqodgfWiT0RlaoM-37" value="" style="endArrow=none;html=1;rounded=0;entryX=0;entryY=0.5;entryDx=0;entryDy=0;exitX=0.625;exitY=-0.017;exitDx=0;exitDy=0;exitPerimeter=0;" edge="1" parent="1" source="P316yzqodgfWiT0RlaoM-2" target="P316yzqodgfWiT0RlaoM-31">
          <mxGeometry width="50" height="50" relative="1" as="geometry">
            <mxPoint x="879" y="337" as="sourcePoint" />
            <mxPoint x="963" y="260" as="targetPoint" />
          </mxGeometry>
        </mxCell>
        <mxCell id="P316yzqodgfWiT0RlaoM-38" value="" style="endArrow=none;html=1;rounded=0;entryX=0;entryY=0;entryDx=0;entryDy=0;exitX=1;exitY=0.75;exitDx=0;exitDy=0;" edge="1" parent="1" source="P316yzqodgfWiT0RlaoM-2" target="P316yzqodgfWiT0RlaoM-33">
          <mxGeometry width="50" height="50" relative="1" as="geometry">
            <mxPoint x="905" y="339" as="sourcePoint" />
            <mxPoint x="985" y="325" as="targetPoint" />
          </mxGeometry>
        </mxCell>
        <mxCell id="P316yzqodgfWiT0RlaoM-39" value="" style="endArrow=none;html=1;rounded=0;entryX=0;entryY=0;entryDx=0;entryDy=0;exitX=0.842;exitY=0.967;exitDx=0;exitDy=0;exitPerimeter=0;" edge="1" parent="1" source="P316yzqodgfWiT0RlaoM-2" target="P316yzqodgfWiT0RlaoM-34">
          <mxGeometry width="50" height="50" relative="1" as="geometry">
            <mxPoint x="950" y="385" as="sourcePoint" />
            <mxPoint x="997" y="407" as="targetPoint" />
          </mxGeometry>
        </mxCell>
        <mxCell id="P316yzqodgfWiT0RlaoM-40" value="" style="endArrow=none;html=1;rounded=0;entryX=0;entryY=0;entryDx=0;entryDy=0;exitX=0.785;exitY=1.02;exitDx=0;exitDy=0;exitPerimeter=0;" edge="1" parent="1" source="P316yzqodgfWiT0RlaoM-27" target="P316yzqodgfWiT0RlaoM-2">
          <mxGeometry width="50" height="50" relative="1" as="geometry">
            <mxPoint x="931" y="398" as="sourcePoint" />
            <mxPoint x="987" y="497" as="targetPoint" />
          </mxGeometry>
        </mxCell>
        <mxCell id="P316yzqodgfWiT0RlaoM-41" value="" style="endArrow=none;html=1;rounded=0;entryX=0;entryY=0.25;entryDx=0;entryDy=0;exitX=1;exitY=0.5;exitDx=0;exitDy=0;" edge="1" parent="1" source="P316yzqodgfWiT0RlaoM-28" target="P316yzqodgfWiT0RlaoM-2">
          <mxGeometry width="50" height="50" relative="1" as="geometry">
            <mxPoint x="740" y="210" as="sourcePoint" />
            <mxPoint x="830" y="340" as="targetPoint" />
          </mxGeometry>
        </mxCell>
        <mxCell id="P316yzqodgfWiT0RlaoM-42" value="" style="endArrow=none;html=1;rounded=0;exitX=1;exitY=0.5;exitDx=0;exitDy=0;" edge="1" parent="1" source="P316yzqodgfWiT0RlaoM-32">
          <mxGeometry width="50" height="50" relative="1" as="geometry">
            <mxPoint x="724" y="265" as="sourcePoint" />
            <mxPoint x="820" y="355" as="targetPoint" />
          </mxGeometry>
        </mxCell>
        <mxCell id="P316yzqodgfWiT0RlaoM-43" value="Has" style="rhombus;whiteSpace=wrap;html=1;" vertex="1" parent="1">
          <mxGeometry x="460" y="490" width="80" height="80" as="geometry" />
        </mxCell>
        <mxCell id="P316yzqodgfWiT0RlaoM-44" value="" style="endArrow=none;html=1;rounded=0;entryX=0;entryY=0.5;entryDx=0;entryDy=0;exitX=1;exitY=0.75;exitDx=0;exitDy=0;" edge="1" parent="1" source="P316yzqodgfWiT0RlaoM-1" target="P316yzqodgfWiT0RlaoM-43">
          <mxGeometry width="50" height="50" relative="1" as="geometry">
            <mxPoint x="340" y="310" as="sourcePoint" />
            <mxPoint x="390" y="260" as="targetPoint" />
          </mxGeometry>
        </mxCell>
        <mxCell id="P316yzqodgfWiT0RlaoM-45" value="" style="endArrow=none;html=1;rounded=0;entryX=1;entryY=0.5;entryDx=0;entryDy=0;exitX=0;exitY=1;exitDx=0;exitDy=0;" edge="1" parent="1" source="P316yzqodgfWiT0RlaoM-2" target="P316yzqodgfWiT0RlaoM-43">
          <mxGeometry width="50" height="50" relative="1" as="geometry">
            <mxPoint x="240" y="395" as="sourcePoint" />
            <mxPoint x="470" y="540" as="targetPoint" />
          </mxGeometry>
        </mxCell>
        <mxCell id="P316yzqodgfWiT0RlaoM-46" value="1" style="text;html=1;align=center;verticalAlign=middle;whiteSpace=wrap;rounded=0;" vertex="1" parent="1">
          <mxGeometry x="230" y="430" width="60" height="30" as="geometry" />
        </mxCell>
        <mxCell id="P316yzqodgfWiT0RlaoM-47" value="n" style="text;html=1;align=center;verticalAlign=middle;resizable=0;points=[];autosize=1;strokeColor=none;fillColor=none;" vertex="1" parent="1">
          <mxGeometry x="725" y="468" width="30" height="30" as="geometry" />
        </mxCell>
      </root>
    </mxGraphModel>
  </diagram>
</mxfile>
